<svg width="26" height="26" viewBox="0 0 26 26" fill="none" xmlns="http://www.w3.org/2000/svg">
<path d="M13 0.500005C19.9037 0.500005 25.5 6.09626 25.5 13C25.5 19.9038 19.9037 25.5 13 25.5C6.09625 25.5 0.5 19.9038 0.5 13H3C3.00018 15.3516 3.82908 17.6278 5.34104 19.4289C6.853 21.2299 8.9513 22.4405 11.2673 22.848C13.5833 23.2554 15.9688 22.8337 18.0046 21.6568C20.0405 20.4799 21.5965 18.6233 22.3993 16.413C23.202 14.2027 23.2002 11.7802 22.3941 9.57115C21.5879 7.36209 20.0291 5.50778 17.9914 4.33402C15.9538 3.16026 13.5676 2.74215 11.2523 3.15313C8.93692 3.56412 6.84047 4.77791 5.33125 6.58125L8 9.25001H0.5V1.75001L3.55875 4.80751C4.73111 3.45399 6.18111 2.36871 7.81022 1.62545C9.43932 0.882178 11.2093 0.498335 13 0.500005ZM14.25 6.75001V12.4813L18.3037 16.535L16.535 18.3038L11.75 13.5163V6.75001H14.25Z" fill="#667C8A"/>
</svg>
