<svg width="41" height="41" viewBox="0 0 41 41" fill="none" xmlns="http://www.w3.org/2000/svg">
<path fill-rule="evenodd" clip-rule="evenodd" d="M19.9514 0.0470399C19.2249 0.164029 18.5611 0.536408 18.0042 1.13959C17.4074 1.786 17.1408 2.4906 17.1408 3.4218C17.1408 5.26577 18.2957 6.44836 20.5228 6.88477C21.7814 7.13145 31.8263 7.13145 33.0848 6.88477C35.3119 6.44836 36.4669 5.26577 36.4669 3.4218C36.4669 2.4906 36.2003 1.786 35.6035 1.13959C34.456 -0.103243 32.8832 -0.333227 31.2022 0.495943C30.0324 1.0729 28.4831 2.53527 27.3422 4.1389C27.0817 4.50513 26.8505 4.82742 26.8284 4.85518C26.8063 4.88284 26.7425 4.82444 26.6865 4.72538C26.3954 4.2104 25.2689 2.84915 24.5221 2.11003C22.8536 0.458449 21.419 -0.18909 19.9514 0.0470399ZM21.1447 1.72075C22.0843 2.00062 23.4506 3.16897 24.6646 4.73081C24.9305 5.07287 25.148 5.38634 25.148 5.42763C25.148 5.55127 21.2098 5.38296 20.5792 5.23227C19.6939 5.02083 19.099 4.6339 18.8993 4.13972C18.6823 3.60282 18.6902 3.16221 18.9263 2.65348C19.1593 2.15131 19.4251 1.90832 19.9408 1.72628C20.4458 1.54792 20.563 1.54741 21.1447 1.72075ZM33.5533 1.68479C34.6623 1.98966 35.1787 3.26906 34.6225 4.33385C34.4425 4.67836 33.6578 5.10329 32.9097 5.26136C32.2489 5.40099 28.4597 5.5396 28.4597 5.42425C28.4597 5.25317 29.82 3.63621 30.4715 3.03303C31.2706 2.29309 31.8564 1.9033 32.444 1.72034C32.9653 1.55817 33.0794 1.55448 33.5533 1.68479ZM15.2647 8.05149C14.7455 8.23178 14.2887 8.7443 14.1126 9.3439C13.8787 10.1402 13.95 13.5359 14.2129 14.1256C14.5591 14.9023 15.2796 15.4007 16.063 15.4053L16.4471 15.4076L16.4769 20.205L16.5066 25.0023L16.8193 25.5028C17.1842 26.0868 17.8508 26.6236 18.3979 26.774C18.9275 26.9197 34.6801 26.9197 35.2098 26.774C35.7569 26.6236 36.4235 26.0868 36.7884 25.5028L37.1011 25.0023L37.1308 20.1537L37.1605 15.3051L37.5447 15.3029C38.0786 15.2998 38.7316 14.9822 39.0443 14.5736C39.5419 13.9235 39.6566 13.2456 39.6187 11.179C39.5795 9.04958 39.4666 8.67208 38.7342 8.22134L38.3429 7.98049L26.9591 7.96205C19.2086 7.94945 15.4761 7.97803 15.2647 8.05149ZM37.9604 11.2587C37.9793 12.2402 37.9465 13.0518 37.8787 13.2819L37.7655 13.6661H34.8154H31.8654L31.6115 13.9175C31.2753 14.2502 31.2753 14.721 31.6115 15.0536C31.8618 15.3015 31.8913 15.3051 33.6813 15.3051H35.497V19.8706C35.497 24.6245 35.49 24.7036 35.045 25.0605C34.8401 25.2248 34.2489 25.2375 26.8038 25.2375C19.3588 25.2375 18.7676 25.2248 18.5626 25.0605C18.1176 24.7036 18.1107 24.6245 18.1107 19.8706V15.3051H19.9264C21.7164 15.3051 21.7459 15.3015 21.9962 15.0536C22.3382 14.7153 22.3325 14.2504 21.9825 13.9038L21.7145 13.6386L18.7652 13.6866L15.8158 13.7348L15.7214 13.4888C15.6169 13.2168 15.5899 9.98796 15.69 9.7299C15.747 9.58269 16.797 9.56989 26.841 9.59355L37.929 9.61957L37.9604 11.2587ZM23.3323 10.6394L23.0782 10.8908V14.6393V18.3877L23.3323 18.6391C23.4895 18.7947 23.705 18.8906 23.8979 18.8906C24.2234 18.8906 24.3248 18.8176 25.7938 17.5261L26.5949 16.8218L28.0007 17.8563C29.5479 18.9947 29.8213 19.0887 30.2754 18.6391L30.5295 18.3877V14.6393V10.8908L30.2754 10.6394C29.9671 10.3341 29.5099 10.3111 29.1697 10.5836C28.9261 10.7787 28.9253 10.7871 28.8736 13.6079L28.8219 16.4366L27.8387 15.7185C27.2374 15.2792 26.7541 14.9999 26.5941 14.9991C26.2926 14.9976 26.0262 15.1626 25.3032 15.7985L24.7858 16.2536L24.734 13.5164C24.6825 10.7918 24.6812 10.7783 24.438 10.5836C24.0978 10.3111 23.6406 10.3341 23.3323 10.6394ZM12.4188 27.4928C11.28 27.7355 0.587718 32.2026 0.232852 32.584C0.104835 32.7216 0 32.945 0 33.0805C0 33.3796 3.66561 40.7094 3.9056 40.8901C4.28178 41.1734 4.62237 41.0142 7.65565 39.1367L10.6955 37.2554L11.4795 37.494C12.9947 37.9551 18.9 39.8747 20.0894 40.2929C22.0045 40.9661 23.2509 41.0058 24.9766 40.4488C26.3263 40.0132 30.1106 38.0403 37.2046 34.0738C41.0594 31.9184 40.8391 32.0575 40.965 31.6999C41.2268 30.9565 39.9753 29.5148 38.7402 29.1372C37.0156 28.61 35.7532 28.9676 29.805 31.6691C28.0121 32.4835 26.4636 33.2216 26.364 33.3095C25.9844 33.6443 26.2252 34.4755 26.7388 34.603C27.0782 34.6874 27.3715 34.5735 30.4997 33.1434C36.0284 30.6158 37.3628 30.2245 38.4936 30.7996C38.7429 30.9264 38.9507 31.074 38.9554 31.1277C38.9688 31.282 30.2765 36.0994 26.7761 37.8778C23.9032 39.3373 22.7759 39.5155 20.8014 38.8218C17.3434 37.6072 10.946 35.5887 10.554 35.5887C10.3852 35.5887 9.24929 36.2336 7.49711 37.3242L4.70878 39.0598L3.32751 36.2927C2.56779 34.7708 1.96237 33.5106 1.98214 33.4923C2.06369 33.4163 11.8869 29.3084 12.3153 29.1711C12.9853 28.9563 14.7246 28.8786 15.5822 29.0249C16.9104 29.2518 18.728 29.9667 23.5359 32.1535L24.356 32.5265L24.0971 32.7827L23.8382 33.0391L22.6044 32.882C20.7669 32.6482 17.4328 32.3106 16.9618 32.3106C16.189 32.3106 15.7997 33.0037 16.2523 33.5735C16.5024 33.8881 16.4061 33.8706 19.7148 34.2036C21.1378 34.3468 22.6615 34.5174 23.1007 34.5827C24.0692 34.7264 24.504 34.6252 25.1047 34.1162C25.5812 33.7125 26.0795 32.7817 26.0994 32.2581C26.1258 31.5628 25.7104 31.3136 21.2671 29.3598C18.4345 28.1142 16.948 27.5874 15.7304 27.3974C14.7371 27.2424 13.4149 27.2806 12.4188 27.4928Z" fill="white"/>
</svg>
