<svg width="46" height="46" viewBox="0 0 46 46" fill="none" xmlns="http://www.w3.org/2000/svg">
<path fill-rule="evenodd" clip-rule="evenodd" d="M40.25 14.375V17.25H5.75V14.375H40.25ZM5.75 20.125H40.25V34.5H5.75V20.125ZM40.25 11.5H5.75C4.9875 11.5 4.25624 11.8029 3.71707 12.3421C3.1779 12.8812 2.875 13.6125 2.875 14.375V34.5C2.875 35.2625 3.1779 35.9938 3.71707 36.5329C4.25624 37.0721 4.9875 37.375 5.75 37.375H40.25C41.0125 37.375 41.7438 37.0721 42.2829 36.5329C42.8221 35.9938 43.125 35.2625 43.125 34.5V14.375C43.125 13.6125 42.8221 12.8812 42.2829 12.3421C41.7438 11.8029 41.0125 11.5 40.25 11.5ZM31.625 28.75H37.375V31.625H31.625V28.75Z" fill="white"/>
</svg>
