<svg width="42" height="42" viewBox="0 0 42 42" fill="none" xmlns="http://www.w3.org/2000/svg">
<path fill-rule="evenodd" clip-rule="evenodd" d="M28.4919 18.7586C28.6142 18.8806 28.7111 19.0254 28.7773 19.1849C28.8435 19.3443 28.8775 19.5153 28.8775 19.6879C28.8775 19.8605 28.8435 20.0315 28.7773 20.1909C28.7111 20.3504 28.6142 20.4952 28.4919 20.6171L20.6169 28.4921C20.495 28.6144 20.3502 28.7113 20.1907 28.7775C20.0313 28.8437 19.8603 28.8777 19.6877 28.8777C19.5151 28.8777 19.3441 28.8437 19.1847 28.7775C19.0252 28.7113 18.8804 28.6144 18.7584 28.4921L14.8209 24.5546C14.6989 24.4326 14.6021 24.2877 14.5361 24.1283C14.47 23.9689 14.436 23.798 14.436 23.6254C14.436 23.4528 14.47 23.2819 14.5361 23.1225C14.6021 22.963 14.6989 22.8182 14.8209 22.6961C15.0674 22.4497 15.4017 22.3112 15.7502 22.3112C15.9228 22.3112 16.0937 22.3452 16.2531 22.4113C16.4125 22.4773 16.5574 22.5741 16.6794 22.6961L19.6877 25.707L26.6334 18.7586C26.7554 18.6364 26.9002 18.5394 27.0597 18.4733C27.2191 18.4071 27.3901 18.373 27.5627 18.373C27.7353 18.373 27.9063 18.4071 28.0657 18.4733C28.2252 18.5394 28.37 18.6364 28.4919 18.7586Z" fill="white"/>
<path d="M10.5 3.9375H7.875C6.48261 3.9375 5.14726 4.49062 4.16269 5.47519C3.17812 6.45976 2.625 7.79511 2.625 9.1875V36.75C2.625 38.1424 3.17812 39.4777 4.16269 40.4623C5.14726 41.4469 6.48261 42 7.875 42H34.125C35.5174 42 36.8527 41.4469 37.8373 40.4623C38.8219 39.4777 39.375 38.1424 39.375 36.75V9.1875C39.375 7.79511 38.8219 6.45976 37.8373 5.47519C36.8527 4.49062 35.5174 3.9375 34.125 3.9375H31.5V6.5625H34.125C34.8212 6.5625 35.4889 6.83906 35.9812 7.33134C36.4734 7.82363 36.75 8.49131 36.75 9.1875V36.75C36.75 37.4462 36.4734 38.1139 35.9812 38.6062C35.4889 39.0984 34.8212 39.375 34.125 39.375H7.875C7.17881 39.375 6.51113 39.0984 6.01884 38.6062C5.52656 38.1139 5.25 37.4462 5.25 36.75V9.1875C5.25 8.49131 5.52656 7.82363 6.01884 7.33134C6.51113 6.83906 7.17881 6.5625 7.875 6.5625H10.5V3.9375Z" fill="white"/>
<path d="M24.9375 2.625C25.2856 2.625 25.6194 2.76328 25.8656 3.00942C26.1117 3.25556 26.25 3.5894 26.25 3.9375V6.5625C26.25 6.9106 26.1117 7.24444 25.8656 7.49058C25.6194 7.73672 25.2856 7.875 24.9375 7.875H17.0625C16.7144 7.875 16.3806 7.73672 16.1344 7.49058C15.8883 7.24444 15.75 6.9106 15.75 6.5625V3.9375C15.75 3.5894 15.8883 3.25556 16.1344 3.00942C16.3806 2.76328 16.7144 2.625 17.0625 2.625H24.9375ZM17.0625 0C16.0182 0 15.0167 0.414843 14.2783 1.15327C13.5398 1.89169 13.125 2.89321 13.125 3.9375V6.5625C13.125 7.60679 13.5398 8.60831 14.2783 9.34673C15.0167 10.0852 16.0182 10.5 17.0625 10.5H24.9375C25.9818 10.5 26.9833 10.0852 27.7217 9.34673C28.4602 8.60831 28.875 7.60679 28.875 6.5625V3.9375C28.875 2.89321 28.4602 1.89169 27.7217 1.15327C26.9833 0.414843 25.9818 0 24.9375 0L17.0625 0Z" fill="white"/>
</svg>
