<svg width="42" height="42" viewBox="0 0 42 42" fill="none" xmlns="http://www.w3.org/2000/svg">
<path d="M14.4375 18.375C14.0894 18.375 13.7556 18.5133 13.5094 18.7594C13.2633 19.0056 13.125 19.3394 13.125 19.6875C13.125 20.0356 13.2633 20.3694 13.5094 20.6156C13.7556 20.8617 14.0894 21 14.4375 21H27.5625C27.9106 21 28.2444 20.8617 28.4906 20.6156C28.7367 20.3694 28.875 20.0356 28.875 19.6875C28.875 19.3394 28.7367 19.0056 28.4906 18.7594C28.2444 18.5133 27.9106 18.375 27.5625 18.375H14.4375ZM13.125 24.9375C13.125 24.5894 13.2633 24.2556 13.5094 24.0094C13.7556 23.7633 14.0894 23.625 14.4375 23.625H27.5625C27.9106 23.625 28.2444 23.7633 28.4906 24.0094C28.7367 24.2556 28.875 24.5894 28.875 24.9375C28.875 25.2856 28.7367 25.6194 28.4906 25.8656C28.2444 26.1117 27.9106 26.25 27.5625 26.25H14.4375C14.0894 26.25 13.7556 26.1117 13.5094 25.8656C13.2633 25.6194 13.125 25.2856 13.125 24.9375ZM13.125 30.1875C13.125 29.8394 13.2633 29.5056 13.5094 29.2594C13.7556 29.0133 14.0894 28.875 14.4375 28.875H19.6875C20.0356 28.875 20.3694 29.0133 20.6156 29.2594C20.8617 29.5056 21 29.8394 21 30.1875C21 30.5356 20.8617 30.8694 20.6156 31.1156C20.3694 31.3617 20.0356 31.5 19.6875 31.5H14.4375C14.0894 31.5 13.7556 31.3617 13.5094 31.1156C13.2633 30.8694 13.125 30.5356 13.125 30.1875Z" fill="white"/>
<path d="M24.9375 0H10.5C9.10761 0 7.77226 0.553123 6.78769 1.53769C5.80312 2.52226 5.25 3.85761 5.25 5.25V36.75C5.25 38.1424 5.80312 39.4777 6.78769 40.4623C7.77226 41.4469 9.10761 42 10.5 42H31.5C32.8924 42 34.2277 41.4469 35.2123 40.4623C36.1969 39.4777 36.75 38.1424 36.75 36.75V11.8125L24.9375 0ZM24.9375 2.625V7.875C24.9375 8.91929 25.3523 9.92081 26.0908 10.6592C26.8292 11.3977 27.8307 11.8125 28.875 11.8125H34.125V36.75C34.125 37.4462 33.8484 38.1139 33.3562 38.6062C32.8639 39.0984 32.1962 39.375 31.5 39.375H10.5C9.80381 39.375 9.13613 39.0984 8.64384 38.6062C8.15156 38.1139 7.875 37.4462 7.875 36.75V5.25C7.875 4.55381 8.15156 3.88613 8.64384 3.39384C9.13613 2.90156 9.80381 2.625 10.5 2.625H24.9375Z" fill="white"/>
</svg>
