<svg width="35" height="40" viewBox="0 0 35 40" fill="none" xmlns="http://www.w3.org/2000/svg">
<path fill-rule="evenodd" clip-rule="evenodd" d="M14.5133 0.426305C12.9094 0.973636 11.8198 1.63274 10.7077 2.72833C8.64425 4.76143 7.82326 6.64724 7.66362 9.72144C7.56011 11.7149 7.55787 11.7231 6.98008 12.0798C5.83365 12.7878 5.74767 13.1464 5.74767 17.2171C5.74767 20.8644 5.75103 20.8948 6.22158 21.5098C6.81745 22.2888 7.30087 22.5555 8.35013 22.6837C9.14184 22.7804 9.21178 22.8397 9.84216 23.9507C10.2058 24.5918 10.8597 25.5542 11.295 26.0895C12.5871 27.6783 12.3018 28.6872 10.1055 30.2953C8.37904 31.5594 6.47018 32.6007 3.42944 33.937C1.77199 34.6652 0.705003 35.2475 0.482132 35.5451C0.29022 35.8016 0.0852532 36.4724 0.0270643 37.0357C-0.0883811 38.1503 0.158735 38.8555 0.898966 39.5235C1.30274 39.888 1.61663 39.896 17.3515 39.9476L33.3925 40L34.0182 39.5241C35.0984 38.7024 35.3334 36.735 34.4919 35.5564C34.2524 35.2211 33.6916 34.8514 33.0277 34.5909C30.7659 33.7037 26.6683 31.5739 25.252 30.5492C23.7659 29.4741 23.2217 28.8916 23.0068 28.1475C22.9033 27.7884 23.008 27.7104 23.9651 27.433C25.4086 27.0145 26.238 26.5676 26.9518 25.8237C27.6396 25.107 28.3045 23.7471 28.3104 23.0454C28.3127 22.7793 28.5445 22.1516 28.8256 21.6506C29.3321 20.7471 29.3364 20.7101 29.3384 17.2059C29.3403 13.82 29.322 13.643 28.9026 12.9705C28.662 12.5844 28.2323 12.1484 27.9479 12.0017C27.4408 11.7404 27.4288 11.6952 27.3399 9.72814C27.231 7.31955 26.8225 6.03723 25.5897 4.23419C24.2797 2.31825 22.4238 0.984051 20.1211 0.302817C18.6052 -0.14576 16.0232 -0.0888513 14.5133 0.426305ZM20.0379 1.9701C22.8795 2.74693 25.2783 5.59405 25.6086 8.58159L25.719 9.58084L25.1837 8.46498C24.5052 7.05081 22.927 5.58029 21.46 4.9952C20.5049 4.61432 20.0724 4.56746 17.4877 4.56374L14.5872 4.55946L13.1662 5.25985C11.4976 6.08224 10.301 7.29295 9.68997 8.77724L9.28246 9.76682L9.38467 8.65096C9.52753 7.08986 10.5186 5.07146 11.7102 3.91393C13.8633 1.82262 16.903 1.11312 20.0379 1.9701ZM20.5747 6.42537C21.9503 6.80458 22.9833 7.64817 23.5962 8.89291L24.1182 9.9528L24.1721 16.0355L24.2258 22.1183L23.757 23.0411C23.499 23.5487 22.8632 24.4728 22.3442 25.0949C21.471 26.1412 21.3432 26.2258 20.6371 26.2258C20.0267 26.2258 19.7291 26.0954 19.1513 25.5749C18.2928 24.8014 17.6397 24.74 16.7349 25.348C15.1901 26.3861 15.3336 28.2927 17.0162 29.0889C17.8607 29.4886 18.6664 29.279 19.4597 28.4532C20.059 27.8295 21.2274 27.6528 21.2274 28.186C21.2274 30.0359 25.7328 33.3601 31.4222 35.7076C33.3167 36.4893 33.3798 36.5479 33.3128 37.4614L33.2569 38.2213H17.4974H1.73786L1.67911 37.5109C1.60656 36.6307 1.7897 36.4034 2.90611 35.9898C4.61728 35.3556 8.25819 33.4603 10.0496 32.271C12.3585 30.7382 13.5144 29.4904 13.6867 28.3454C13.8928 26.9742 13.6873 26.337 12.63 25.0707C12.0927 24.4274 11.4522 23.4637 11.2064 22.929C10.7603 21.9578 10.7599 21.9509 10.8181 15.9548L10.8765 9.9528L11.3774 9.00617C11.9495 7.92527 12.9075 7.01436 13.913 6.59535C15.4205 5.96731 18.6177 5.88566 20.5747 6.42537ZM9.06183 17.1618L9.11237 21.0184H8.47863C8.13006 21.0184 7.74363 20.8968 7.61998 20.7482C7.33313 20.4036 7.12835 15.0398 7.36782 14.1432C7.48719 13.6963 7.68003 13.4587 7.99597 13.3694C9.03068 13.0768 9.00737 12.9937 9.06183 17.1618ZM27.4695 13.5918C27.5818 13.7036 27.6834 15.0761 27.714 16.8894C27.7729 20.4017 27.6653 20.8334 26.6808 21.0342L26.0765 21.1574V17.1592V13.1609L26.6769 13.2807C27.007 13.3465 27.3637 13.4865 27.4695 13.5918ZM26.5616 22.9532C26.7293 23.3889 25.932 24.6961 25.1934 25.1966C24.8109 25.4558 24.4327 25.6679 24.353 25.6679C24.2251 25.6679 24.9248 24.2794 25.6419 23.1107C25.9305 22.6403 26.4096 22.5583 26.5616 22.9532ZM18.2091 27.1075C18.1428 27.6796 17.5645 27.9184 17.3836 27.4484C17.2105 26.9985 17.4429 26.5977 17.8769 26.5977C18.1934 26.5977 18.2568 26.6952 18.2091 27.1075Z" fill="white"/>
</svg>
