<svg width="34" height="36" viewBox="0 0 34 36" fill="none" xmlns="http://www.w3.org/2000/svg">
<path d="M16.8725 0.000736866C17.445 -0.00295908 18.0169 0.0401848 18.5825 0.129737C19.114 0.199468 19.6385 0.315407 20.15 0.476237C20.6703 0.633432 21.1774 0.83155 21.6665 1.06874C22.1555 1.29974 22.6565 1.58324 23.159 1.89224C24.0065 2.43224 24.8419 2.86724 25.6924 3.21674C27.3664 3.88724 29.1364 4.28624 30.9365 4.39874C31.8779 4.46656 32.8215 4.50109 33.7654 4.50224V13.5022C33.7654 15.2122 33.5465 16.8322 33.11 18.3742C32.691 19.8959 32.0954 21.3634 31.3355 22.7467C30.5786 24.1281 29.6829 25.4288 28.6625 26.6287C27.6263 27.8552 26.5045 29.0066 25.3055 30.0742C24.0903 31.1459 22.8104 32.1418 21.4729 33.0562C20.1631 33.9676 18.817 34.8258 17.438 35.6287L16.898 35.9497L16.358 35.6272C14.9696 34.8241 13.6136 33.9665 12.2929 33.0562C9.61317 31.2551 7.19528 29.0921 5.10795 26.6287C4.08965 25.4238 3.18951 24.1239 2.41995 22.7467C1.67297 21.3573 1.07803 19.8913 0.645451 18.3742C0.205804 16.788 -0.0112719 15.1483 0.000450557 13.5022V4.50074C0.979951 4.50074 1.91895 4.46174 2.83245 4.39574C3.73245 4.33424 4.62495 4.20524 5.50545 4.01174C6.36645 3.81824 7.22895 3.56174 8.07645 3.21674C8.95668 2.86125 9.80059 2.42172 10.5965 1.90424C11.5224 1.29523 12.5265 0.814362 13.5815 0.474737C14.6468 0.147606 15.7565 -0.0122952 16.871 0.000736866H16.8725ZM31.502 6.71324C29.7988 6.63084 28.1115 6.34635 26.4755 5.86574C24.8476 5.38023 23.297 4.66557 21.8705 3.74324C21.1314 3.25815 20.3288 2.87755 19.4855 2.61224C18.6418 2.35674 17.7644 2.23031 16.8829 2.23724C15.9957 2.23206 15.1126 2.35843 14.2625 2.61224C13.4171 2.86871 12.6148 3.24991 11.882 3.74324C10.453 4.66997 8.89876 5.38725 7.26645 5.87324C5.63212 6.34409 3.95008 6.62988 2.25195 6.72524V13.5127C2.25195 15.0052 2.44545 16.4317 2.83245 17.8057C3.22689 19.1687 3.77016 20.4841 4.45245 21.7282C5.14245 22.9837 5.95695 24.1687 6.88245 25.2652C7.81932 26.3671 8.82802 27.4059 9.90195 28.3747C10.982 29.3527 12.113 30.2527 13.2965 31.0867C14.4587 31.9006 15.6553 32.6643 16.8829 33.3757C18.1066 32.6634 19.2997 31.8997 20.459 31.0867C21.6497 30.2551 22.787 29.3493 23.8639 28.3747C24.9389 27.406 25.9486 26.3672 26.8865 25.2652C27.812 24.1702 28.6264 22.9852 29.3165 21.7282C29.996 20.4847 30.5315 19.1692 30.9125 17.8057C31.3115 16.4107 31.5095 14.9647 31.502 13.5127V6.71324Z" fill="white"/>
<path d="M25.7163 11.001L14.7163 22.001L9.71631 17.001" stroke="white" stroke-width="2" stroke-linecap="round" stroke-linejoin="round"/>
</svg>
