<svg width="37" height="37" viewBox="0 0 37 37" fill="none" xmlns="http://www.w3.org/2000/svg">
<path d="M18.5 36C28.165 36 36 28.165 36 18.5C36 8.83502 28.165 1 18.5 1C8.83502 1 1 8.83502 1 18.5C1 28.165 8.83502 36 18.5 36Z" stroke="white" stroke-width="1.5" stroke-linecap="round" stroke-linejoin="round"/>
<path d="M1 18.5H36" stroke="white" stroke-width="1.5" stroke-linecap="round" stroke-linejoin="round"/>
<path d="M18.5 1C22.8772 5.79212 25.3648 12.0111 25.5 18.5C25.3648 24.9889 22.8772 31.2079 18.5 36C14.1228 31.2079 11.6352 24.9889 11.5 18.5C11.6352 12.0111 14.1228 5.79212 18.5 1V1Z" stroke="white" stroke-width="1.5" stroke-linecap="round" stroke-linejoin="round"/>
<path d="M4.91162 8.20571C14.7982 11.3162 22.6921 11.0519 32.0881 7.79395" stroke="white" stroke-width="1.5"/>
<path d="M4.91162 29.3363C14.7982 26.2258 22.6921 26.4901 32.0881 29.748" stroke="white" stroke-width="1.5"/>
</svg>
