<svg width="43" height="34" viewBox="0 0 43 34" fill="none" xmlns="http://www.w3.org/2000/svg">
<path d="M1.25 31.875C0.918479 31.875 0.600537 31.9869 0.366116 32.1862C0.131696 32.3854 0 32.6557 0 32.9375C0 33.2193 0.131696 33.4895 0.366116 33.6888C0.600537 33.8881 0.918479 34 1.25 34H33.75C34.0815 34 34.3995 33.8881 34.6339 33.6888C34.8683 33.4895 35 33.2193 35 32.9375C35 32.6557 34.8683 32.3854 34.6339 32.1862C34.3995 31.9869 34.0815 31.875 33.75 31.875H30V5.31236C30 4.46698 29.6049 3.65623 28.9017 3.05845C28.1984 2.46068 27.2446 2.12485 26.25 2.12485H25V1.06234C25 0.910259 24.9615 0.759951 24.8873 0.62158C24.813 0.483208 24.7047 0.359999 24.5696 0.260279C24.4345 0.160558 24.2758 0.0866518 24.1042 0.0435541C23.9326 0.000456449 23.7522 -0.0108278 23.575 0.0104642L6.075 2.13547C5.7768 2.17131 5.50384 2.29746 5.30633 2.49072C5.10883 2.68398 5.00005 2.93136 5 3.18735V31.875H1.25ZM25 4.24986H26.25C26.5815 4.24986 26.8995 4.3618 27.1339 4.56106C27.3683 4.76032 27.5 5.03057 27.5 5.31236V31.875H25V4.24986ZM18.75 21.2499C18.06 21.2499 17.5 20.2979 17.5 19.1249C17.5 17.9519 18.06 16.9999 18.75 16.9999C19.44 16.9999 20 17.9519 20 19.1249C20 20.2979 19.44 21.2499 18.75 21.2499Z" fill="white"/>
<path fill-rule="evenodd" clip-rule="evenodd" d="M31 19.5C31 19.2917 31.079 19.0918 31.2196 18.9445C31.3603 18.7972 31.551 18.7144 31.7499 18.7144H40.4384L37.2183 15.3428C37.0775 15.1952 36.9984 14.9952 36.9984 14.7866C36.9984 14.578 37.0775 14.3779 37.2183 14.2304C37.3591 14.0829 37.5501 14 37.7492 14C37.9484 14 38.1394 14.0829 38.2802 14.2304L42.7797 18.9438C42.8495 19.0168 42.9049 19.1035 42.9427 19.1989C42.9805 19.2944 43 19.3967 43 19.5C43 19.6033 42.9805 19.7056 42.9427 19.8011C42.9049 19.8965 42.8495 19.9832 42.7797 20.0562L38.2802 24.7696C38.1394 24.9171 37.9484 25 37.7492 25C37.5501 25 37.3591 24.9171 37.2183 24.7696C37.0775 24.6221 36.9984 24.422 36.9984 24.2134C36.9984 24.0048 37.0775 23.8048 37.2183 23.6573L40.4384 20.2856H31.7499C31.551 20.2856 31.3603 20.2028 31.2196 20.0555C31.079 19.9082 31 19.7083 31 19.5Z" fill="white"/>
</svg>
