<svg width="40" height="40" viewBox="0 0 40 40" fill="none" xmlns="http://www.w3.org/2000/svg">
<path d="M40 19.98C40 8.95 31.04 0 20 0C8.96 0 0 8.95 0 19.98C0 26.055 2.76 31.53 7.08 35.205C7.12 35.245 7.16 35.245 7.16 35.285C7.52 35.565 7.88 35.845 8.28 36.125C8.48 36.245 8.64 36.4017 8.84 36.5617C12.1451 38.8029 16.0467 40.0006 20.04 40C24.0333 40.0006 27.9349 38.8029 31.24 36.5617C31.44 36.4417 31.6 36.285 31.8 36.1617C32.16 35.885 32.56 35.605 32.92 35.325C32.96 35.285 33 35.285 33 35.245C37.24 31.5283 40 26.055 40 19.98ZM20 37.4833C16.24 37.4833 12.8 36.2833 9.96 34.285C10 33.965 10.08 33.6467 10.16 33.3267C10.3983 32.46 10.7483 31.6267 11.2 30.85C11.64 30.09 12.16 29.41 12.8 28.81C13.4161 28.2003 14.1006 27.664 14.84 27.2117C15.6061 26.7731 16.4264 26.4369 17.28 26.2117C18.1669 25.9729 19.0815 25.8529 20 25.855C22.7266 25.8358 25.353 26.8817 27.32 28.77C28.2447 29.6973 28.9785 30.797 29.48 32.0067C29.76 32.7283 29.96 33.4883 30.08 34.285C27.1278 36.3601 23.6085 37.4762 20 37.4817V37.4833ZM13.88 18.9833C13.5273 18.1759 13.3501 17.3027 13.36 16.4217C13.36 15.545 13.52 14.665 13.88 13.865C14.24 13.065 14.72 12.3483 15.32 11.7483C15.92 11.1483 16.64 10.67 17.44 10.31C18.2471 9.95794 19.1195 9.78072 20 9.79C20.92 9.79 21.76 9.95 22.56 10.31C23.36 10.67 24.08 11.15 24.68 11.7467C25.28 12.3467 25.76 13.0667 26.12 13.865C26.4717 14.671 26.649 15.5423 26.64 16.4217C26.64 17.3433 26.48 18.1817 26.12 18.98C25.7726 19.7682 25.2846 20.4865 24.68 21.1C24.0664 21.704 23.348 22.1914 22.56 22.5383C20.9071 23.2177 19.0529 23.2177 17.4 22.5383C16.612 22.1914 15.8936 21.704 15.28 21.1C14.6746 20.4954 14.1983 19.7742 13.88 18.98V18.9833ZM32.44 32.2483C32.44 32.1667 32.4 32.1267 32.4 32.0483C32.0068 30.7963 31.4269 29.6107 30.68 28.5317C29.9325 27.4454 29.0139 26.4875 27.96 25.695C27.155 25.0895 26.2825 24.5794 25.36 24.175C25.78 23.8983 26.1683 23.5767 26.52 23.2167C27.1161 22.6283 27.6398 21.9709 28.08 21.2583C28.9661 19.8023 29.4236 18.1259 29.4 16.4217C29.4121 15.161 29.1671 13.9111 28.68 12.7483C28.1989 11.6271 27.5063 10.6091 26.64 9.75C25.7751 8.90006 24.7572 8.22146 23.64 7.75C22.4747 7.26377 21.2226 7.01993 19.96 7.03333C18.6972 7.02098 17.4451 7.26596 16.28 7.75333C15.1532 8.22353 14.1328 8.91624 13.28 9.79C12.43 10.6542 11.7514 11.6716 11.28 12.7883C10.7928 13.9511 10.5479 15.201 10.56 16.4617C10.56 17.3417 10.68 18.1817 10.92 18.98C11.16 19.82 11.48 20.58 11.92 21.2967C12.32 22.0167 12.88 22.6567 13.48 23.2567C13.84 23.6167 14.24 23.935 14.68 24.215C13.7546 24.6302 12.8818 25.1538 12.08 25.775C11.046 26.5743 10.1302 27.5158 9.36 28.5717C8.60548 29.6462 8.02503 30.833 7.64 32.0883C7.6 32.1667 7.6 32.2483 7.6 32.2883C4.44 29.09 2.48 24.775 2.48 19.98C2.48 10.35 10.36 2.47667 20 2.47667C29.64 2.47667 37.52 10.35 37.52 19.98C37.5145 24.5796 35.6881 28.9899 32.44 32.2467V32.2483Z" fill="white"/>
</svg>
