<svg width="52" height="31" viewBox="0 0 52 31" fill="none" xmlns="http://www.w3.org/2000/svg">
<path fill-rule="evenodd" clip-rule="evenodd" d="M23.4205 5.1176L20.8453 10.2355L15.3309 11.0165C12.298 11.4459 9.81643 11.8623 9.81643 11.9417C9.81643 12.021 11.5977 13.8501 13.7751 16.0067L17.7338 19.9277L16.7601 25.425C16.2246 28.4484 15.8121 30.9567 15.8437 30.9988C15.875 31.041 18.1128 29.9168 20.8164 28.5007C23.5203 27.0846 25.8529 25.9266 26 25.9277C26.1471 25.9288 28.4832 27.0843 31.191 28.4951C33.8989 29.906 36.1352 31.0294 36.1601 30.9914C36.1852 30.9532 35.7631 28.4739 35.2222 25.4816L34.2384 20.041L38.211 16.0569C40.3959 13.8658 42.1836 12.0051 42.1836 11.9223C42.1836 11.8392 39.7031 11.426 36.6715 11.004L31.1595 10.2365L28.5776 5.11813L25.9955 0L23.4205 5.1176ZM11.5701 4.5186C9.9911 7.73439 9.34536 8.79729 8.91443 8.88885C8.60145 8.9552 6.53959 9.26067 4.33274 9.56773C2.12589 9.87479 0.182253 10.1688 0.0134623 10.2211C-0.155328 10.2737 1.283 11.8676 3.20952 13.7636L6.71212 17.2111L5.8885 21.9433C5.43536 24.5463 5.0935 26.7087 5.12908 26.7488C5.22324 26.856 13.2819 22.7188 13.284 22.5622C13.2848 22.4892 13.1671 22.2504 13.0224 22.0314C12.7998 21.6952 12.2977 21.8725 9.787 23.1745C8.1526 24.0222 6.77178 24.6724 6.71854 24.6196C6.66531 24.567 6.91703 22.7984 7.27788 20.6899L7.93405 16.8563L5.07691 14.012C3.50537 12.4478 2.27381 11.1235 2.33988 11.0691C2.40622 11.0147 4.18775 10.7201 6.29911 10.4141C8.41046 10.1083 10.1725 9.82039 10.2145 9.77447C10.2565 9.72829 11.1018 8.08046 12.0928 6.1123L13.8952 2.53425L15.2303 5.18342C15.9646 6.6407 16.609 7.87982 16.6619 7.93715C16.7149 7.99421 16.9364 7.89468 17.1536 7.71581C17.4941 7.43555 17.3005 6.89574 15.7605 3.82964C14.7766 1.8713 13.9008 0.26911 13.8142 0.26911C13.7275 0.26911 12.7177 2.18128 11.5701 4.5186ZM36.2395 3.82964C34.6995 6.89574 34.5059 7.43555 34.8464 7.71581C35.0636 7.89468 35.2851 7.99421 35.3381 7.93715C35.391 7.87982 36.0354 6.6407 36.7697 5.18342L38.1048 2.53425L39.9072 6.1123C40.8983 8.08046 41.7435 9.72829 41.7855 9.77447C41.8275 9.82039 43.5895 10.1083 45.7009 10.4141C47.8122 10.7201 49.5938 11.0147 49.6601 11.0691C49.7262 11.1235 48.4946 12.4478 46.9231 14.012L44.0659 16.8563L44.7221 20.6899C45.083 22.7984 45.3347 24.567 45.2815 24.6196C45.2282 24.6724 43.8474 24.0222 42.213 23.1745C39.7023 21.8725 39.2002 21.6952 38.9776 22.0314C38.8329 22.2504 38.7152 22.4892 38.716 22.5622C38.7181 22.7188 46.7768 26.856 46.8709 26.7488C46.9065 26.7087 46.5646 24.5463 46.1115 21.9433L45.2879 17.2111L48.7905 13.7636C50.717 11.8676 52.1553 10.2737 51.9865 10.2211C51.8177 10.1688 49.8741 9.87479 47.6673 9.56773C45.4604 9.26067 43.3985 8.9552 43.0856 8.88885C42.6546 8.79729 42.0089 7.73439 40.4299 4.5186C39.2823 2.18128 38.2725 0.26911 38.1858 0.26911C38.0992 0.26911 37.2234 1.8713 36.2395 3.82964Z" fill="white"/>
</svg>
