<svg width="65" height="65" viewBox="0 0 65 65" fill="none" xmlns="http://www.w3.org/2000/svg">
<path d="M20.8025 28.148L19.3319 32.5003H15.5728L21.8778 15.5732H26.2219L32.4998 32.5003H28.5484L27.0778 28.148H20.7998H20.8025ZM26.3357 25.6564L24.0363 18.8097H23.8711L21.5717 25.6537H26.3357V25.6564Z" fill="black"/>
<path d="M5.4165 12.1878C5.4165 10.3921 6.12986 8.6699 7.39964 7.40012C8.66941 6.13035 10.3916 5.41699 12.1873 5.41699H35.8853C37.681 5.41699 39.4032 6.13035 40.673 7.40012C41.9427 8.6699 42.6561 10.3921 42.6561 12.1878V22.3441H52.8123C54.6081 22.3441 56.3303 23.0574 57.6 24.3272C58.8698 25.597 59.5832 27.3192 59.5832 29.1149V52.8128C59.5832 54.6086 58.8698 56.3307 57.6 57.6005C56.3303 58.8703 54.6081 59.5837 52.8123 59.5837H29.1144C27.3187 59.5837 25.5965 58.8703 24.3267 57.6005C23.0569 56.3307 22.3436 54.6086 22.3436 52.8128V42.6566H12.1873C10.3916 42.6566 8.66941 41.9432 7.39964 40.6734C6.12986 39.4037 5.4165 37.6815 5.4165 35.8857V12.1878ZM12.1873 8.80241C11.2895 8.80241 10.4284 9.15909 9.79349 9.79397C9.1586 10.4289 8.80192 11.29 8.80192 12.1878V35.8857C8.80192 36.7836 9.1586 37.6447 9.79349 38.2796C10.4284 38.9145 11.2895 39.2712 12.1873 39.2712H35.8853C36.7831 39.2712 37.6442 38.9145 38.2791 38.2796C38.914 37.6447 39.2707 36.7836 39.2707 35.8857V12.1878C39.2707 11.29 38.914 10.4289 38.2791 9.79397C37.6442 9.15909 36.7831 8.80241 35.8853 8.80241H12.1873ZM36.3511 42.6403C37.0065 43.6587 37.7134 44.6147 38.4853 45.503C35.953 47.4503 32.8221 48.8939 29.1144 49.877C29.7184 50.611 30.6419 52.0274 30.994 52.8128C34.8019 51.5968 38.0357 49.9555 40.763 47.7564C43.3955 50.0043 46.6509 51.6997 50.6836 52.7397C51.1332 51.8784 52.0838 50.4593 52.8123 49.7253C49.0044 48.8695 45.8492 47.3772 43.2655 45.3784C45.5703 42.8489 47.4038 39.7884 48.7525 36.0455H52.8123V32.5003H42.6561V36.0455H45.2453C44.17 38.9028 42.74 41.278 40.939 43.2551C40.4423 42.7251 39.974 42.1691 39.5361 41.5895C38.58 42.2016 37.4859 42.5645 36.3511 42.6403Z" fill="black"/>
</svg>
