<svg width="80" height="80" viewBox="0 0 80 80" fill="none" xmlns="http://www.w3.org/2000/svg">
<path d="M63.3335 53.3333V63.3333C63.3335 64.2174 62.9823 65.0652 62.3572 65.6904C61.7321 66.3155 60.8842 66.6667 60.0002 66.6667H20.0002C18.2321 66.6667 16.5364 65.9643 15.2861 64.714C14.0359 63.4638 13.3335 61.7681 13.3335 60V20" stroke="#B31340" stroke-width="2" stroke-linecap="round" stroke-linejoin="round"/>
<path d="M20 26.6665H60C60.8841 26.6665 61.7319 27.0177 62.357 27.6428C62.9821 28.2679 63.3333 29.1158 63.3333 29.9998V39.9998" stroke="#B31340" stroke-width="2" stroke-linecap="round" stroke-linejoin="round"/>
<path d="M66.6665 40V53.3333H53.3332C51.5651 53.3333 49.8694 52.631 48.6191 51.3807C47.3689 50.1305 46.6665 48.4348 46.6665 46.6667C46.6665 44.8986 47.3689 43.2029 48.6191 41.9526C49.8694 40.7024 51.5651 40 53.3332 40H66.6665Z" stroke="#B31340" stroke-width="2" stroke-linecap="round" stroke-linejoin="round"/>
<path d="M56.6668 26.6668V16.6668C56.6668 15.7828 56.3156 14.9349 55.6905 14.3098C55.0654 13.6847 54.2176 13.3335 53.3335 13.3335H20.0002C18.2321 13.3335 16.5364 14.0359 15.2861 15.2861C14.0359 16.5364 13.3335 18.2321 13.3335 20.0002C13.3335 21.7683 14.0359 23.464 15.2861 24.7142C16.5364 25.9645 18.2321 26.6668 20.0002 26.6668" stroke="#B31340" stroke-width="2" stroke-linecap="round" stroke-linejoin="round"/>
</svg>
